<svg width="282.601" height="144.801" viewBox="0 0 282.601 144.801" xmlns="http://www.w3.org/2000/svg"><g id="svgGroup" stroke-linecap="round" fill-rule="evenodd" font-size="9pt" stroke="#000" stroke-width=".25" fill="#a10000" style="stroke:#000;stroke-width:.25;fill:#a10000"><path d="M 84 142.4 L 0 142.4 L 0 2.4 L 84 2.4 L 84 18.8 L 19 18.8 L 19 61.4 L 75 61.4 L 75 77.4 L 19 77.4 L 19 126 L 84 126 L 84 142.4 Z M 185 130.6 L 194.6 114.6 Q 201.8 120.6 210.8 124.4 A 46.697 46.697 0 0 0 221.541 127.42 A 64.236 64.236 0 0 0 231.8 128.2 Q 242.338 128.2 249.663 124.987 A 27.401 27.401 0 0 0 254.6 122.2 A 20.56 20.56 0 0 0 260.192 116.39 Q 262.825 112.178 262.989 106.732 A 24.232 24.232 0 0 0 263 106 Q 263 100.2 260.6 95.7 Q 258.212 91.223 251.368 86.943 A 51.798 51.798 0 0 0 251.3 86.9 Q 244.4 82.6 231 77.6 A 180.825 180.825 0 0 1 221.785 73.739 Q 213.644 70.041 208 66.3 A 43.863 43.863 0 0 1 201.821 61.405 Q 198.387 58.106 196.276 54.375 A 26.605 26.605 0 0 1 195.7 53.3 A 33.333 33.333 0 0 1 192.659 43.957 A 45.856 45.856 0 0 1 192 36 Q 192 26 197.5 17.9 A 34.355 34.355 0 0 1 206.406 9.025 A 46.771 46.771 0 0 1 213.7 4.9 Q 223.395 0.461 236.784 0.044 A 90.456 90.456 0 0 1 239.6 0 Q 252 0 261.9 2.5 Q 271.8 5 281.2 9.6 L 274.2 25.8 A 62.991 62.991 0 0 0 265.949 21.763 A 83.372 83.372 0 0 0 258.3 19.1 Q 249.2 16.4 239.2 16.4 A 54.374 54.374 0 0 0 231.14 16.96 Q 226.876 17.601 223.4 18.973 A 25.233 25.233 0 0 0 218.4 21.6 A 19.803 19.803 0 0 0 214.073 25.53 A 14.719 14.719 0 0 0 210.8 35 A 20.929 20.929 0 0 0 211.385 40.044 A 17.123 17.123 0 0 0 213 44.2 Q 215.111 48.039 221.182 51.693 A 47.005 47.005 0 0 0 221.7 52 Q 227.129 55.174 237.092 59.046 A 260.029 260.029 0 0 0 241.2 60.6 Q 252.241 64.705 260.026 69.111 A 71.007 71.007 0 0 1 265.9 72.8 Q 275 79.2 278.8 86.7 A 35.157 35.157 0 0 1 282.282 98.426 A 44.311 44.311 0 0 1 282.6 103.8 A 43.42 43.42 0 0 1 281.265 114.801 A 34.209 34.209 0 0 1 276.1 126 A 39.236 39.236 0 0 1 262.237 138.046 A 48.713 48.713 0 0 1 258.1 140 A 61.043 61.043 0 0 1 243.28 144.008 A 80.054 80.054 0 0 1 231.8 144.8 A 94.734 94.734 0 0 1 216.249 143.575 A 76.098 76.098 0 0 1 205.2 140.9 A 76.412 76.412 0 0 1 194.467 136.536 A 56.865 56.865 0 0 1 185 130.6 Z M 93 133.2 L 102.2 118.6 A 33.717 33.717 0 0 0 110.341 124.832 A 38.86 38.86 0 0 0 111.8 125.6 Q 117.4 128.4 123.2 128.4 A 21.481 21.481 0 0 0 130.215 127.305 A 17.873 17.873 0 0 0 138.4 121.5 Q 143.342 115.411 143.923 101.924 A 86.617 86.617 0 0 0 144 98.2 L 144 2.4 L 163 2.4 L 163 96.2 A 94.692 94.692 0 0 1 162.146 109.396 Q 159.982 124.725 152.338 133.051 A 29.063 29.063 0 0 1 152.2 133.2 A 35.859 35.859 0 0 1 128.616 144.571 A 49.36 49.36 0 0 1 123.8 144.8 A 46.885 46.885 0 0 1 107.645 142.035 A 44.808 44.808 0 0 1 106.5 141.6 A 45.655 45.655 0 0 1 98.656 137.636 A 36.367 36.367 0 0 1 93 133.2 Z" vector-effect="non-scaling-stroke"/></g></svg>